<svg width="28" height="35" viewBox="0 0 28 35" fill="none" xmlns="http://www.w3.org/2000/svg">
<path d="M12.8298 0C11.1575 0.00341578 9.54235 0.677345 8.28094 1.89807C7.01953 3.1188 6.19649 4.8044 5.9629 6.64545C4.31423 6.9034 2.80424 7.81277 1.70926 9.20712C0.614278 10.6015 0.00754052 12.3876 6.98171e-05 14.2386C-0.00740089 16.0896 0.584899 17.8816 1.66858 19.2869C2.75226 20.6921 4.25486 21.6165 5.90138 21.8909V35H6.92456C8.76232 34.9964 10.5238 34.1826 11.8226 32.7371C13.1214 31.2917 13.8516 29.3325 13.853 27.2893V21.9945C13.853 21.9945 13.8671 20.4093 13.962 19.7194C13.9635 19.6931 13.9708 19.6676 13.9831 19.6451C14.2286 18.4454 14.8334 17.374 15.6984 16.6066C16.5634 15.8392 17.6372 15.4213 18.7439 15.4213H23.524C23.2901 16.6453 22.6849 17.7426 21.8098 18.5294C20.9347 19.3162 19.843 19.7446 18.7175 19.7428H18.6964L15.1803 19.7272C14.8744 20.2882 14.8059 21.2224 14.8129 22.0023L18.6806 22.0179H18.7087C20.5542 22.0179 22.3242 21.2033 23.6296 19.753C24.9351 18.3028 25.6692 16.3356 25.6706 14.2838V13.1463H18.7439C17.0847 13.1489 15.4815 13.8131 14.2253 15.0181C12.9691 16.2232 12.1434 17.8892 11.8981 19.7135H7.94949C7.94949 19.7135 6.52373 19.6979 5.90314 19.5923L5.8205 19.5689C4.73833 19.29 3.774 18.6094 3.08662 17.6392C2.39924 16.669 2.02989 15.4673 2.03952 14.2323C2.04914 12.9973 2.43717 11.8029 3.13957 10.8461C3.84197 9.88933 4.81678 9.22734 5.90314 8.9694V18.2418C6.40769 18.576 7.24627 18.6522 7.94949 18.6522V8.84822C7.94949 8.84822 7.9618 7.26308 8.05849 6.57313C8.06019 6.54652 8.06678 6.52058 8.07784 6.4969C8.32457 5.30101 8.92784 4.23304 9.7896 3.46658C10.6514 2.70011 11.721 2.2802 12.8245 2.27509H25.8446C25.6114 3.49066 25.0103 4.58059 24.1417 5.36309C23.2731 6.1456 22.1895 6.57337 21.0715 6.57508H9.26452C8.95862 7.13604 8.89005 8.06836 8.89708 8.85017H21.0715C22.9093 8.84655 24.6707 8.03277 25.9696 6.5873C27.2684 5.14182 27.9986 3.18267 28 1.1395V0.00195645L12.8298 0ZM7.94774 21.9867H11.8067V27.2952C11.8062 28.5378 11.423 29.7428 10.721 30.7097C10.0189 31.6766 9.04021 32.347 7.94774 32.6096V21.9867Z" fill="url(#paint0_linear_610_169)"/>
<defs>
<linearGradient id="paint0_linear_610_169" x1="2.18069" y1="-11.9539" x2="35.6827" y2="-6.26212" gradientUnits="userSpaceOnUse">
<stop offset="0.112896" stop-color="#6FE0E8"/>
<stop offset="0.237971" stop-color="#88B1EC"/>
<stop offset="0.354145" stop-color="#8E8CF4"/>
<stop offset="0.446839" stop-color="#A982EC" stop-opacity="0.92"/>
<stop offset="0.574071" stop-color="#E577D8"/>
<stop offset="0.679099" stop-color="#FC96B2"/>
<stop offset="0.790253" stop-color="#FCBF8F"/>
<stop offset="0.890625" stop-color="#FCDB73"/>
</linearGradient>
</defs>
</svg>
